<?xml version="1.0" encoding="UTF-8" standalone="no"?>
<!DOCTYPE svg PUBLIC "-//W3C//DTD SVG 1.1//EN"
 "http://www.w3.org/Graphics/SVG/1.1/DTD/svg11.dtd">
<!-- Generated by graphviz version 2.42.4 (0)
 -->
<!-- Title: C Pages: 1 -->
<svg width="490pt" height="831pt"
 viewBox="0.00 0.00 490.10 830.60" xmlns="http://www.w3.org/2000/svg" xmlns:xlink="http://www.w3.org/1999/xlink">
<g id="graph0" class="graph" transform="scale(1 1) rotate(0) translate(28.8 801.8)">
<title>C</title>
<polygon fill="white" stroke="transparent" points="-28.8,28.8 -28.8,-801.8 461.3,-801.8 461.3,28.8 -28.8,28.8"/>
<!-- User -->
<g id="node1" class="node">
<title>User</title>
<path fill="#eef2ff" stroke="#6366f1" d="M159.5,-559.5C159.5,-559.5 189.5,-559.5 189.5,-559.5 195.5,-559.5 201.5,-565.5 201.5,-571.5 201.5,-571.5 201.5,-638.5 201.5,-638.5 201.5,-644.5 195.5,-650.5 189.5,-650.5 189.5,-650.5 159.5,-650.5 159.5,-650.5 153.5,-650.5 147.5,-644.5 147.5,-638.5 147.5,-638.5 147.5,-571.5 147.5,-571.5 147.5,-565.5 153.5,-559.5 159.5,-559.5"/>
<text text-anchor="middle" x="174.5" y="-635.3" font-family="Arial" font-size="14.00">User</text>
<polyline fill="none" stroke="#6366f1" points="147.5,-627.5 201.5,-627.5 "/>
<text text-anchor="start" x="155.5" y="-612.3" font-family="Arial" font-size="14.00">id</text>
<text text-anchor="start" x="155.5" y="-597.3" font-family="Arial" font-size="14.00">name</text>
<text text-anchor="start" x="155.5" y="-582.3" font-family="Arial" font-size="14.00">email</text>
<text text-anchor="start" x="155.5" y="-567.3" font-family="Arial" font-size="14.00">role</text>
</g>
<!-- Exam -->
<g id="node2" class="node">
<title>Exam</title>
<path fill="#f8fafc" stroke="#cbd5e1" d="M25,-370.5C25,-370.5 114,-370.5 114,-370.5 120,-370.5 126,-376.5 126,-382.5 126,-382.5 126,-487.5 126,-487.5 126,-493.5 120,-499.5 114,-499.5 114,-499.5 25,-499.5 25,-499.5 19,-499.5 13,-493.5 13,-487.5 13,-487.5 13,-382.5 13,-382.5 13,-376.5 19,-370.5 25,-370.5"/>
<text text-anchor="middle" x="69.5" y="-484.3" font-family="Arial" font-size="14.00">Exam</text>
<polyline fill="none" stroke="#cbd5e1" points="13,-476.5 126,-476.5 "/>
<text text-anchor="start" x="21" y="-461.3" font-family="Arial" font-size="14.00">title</text>
<text text-anchor="start" x="21" y="-446.3" font-family="Arial" font-size="14.00">durationMinutes</text>
<text text-anchor="start" x="21" y="-431.3" font-family="Arial" font-size="14.00">status</text>
<text text-anchor="start" x="21" y="-416.3" font-family="Arial" font-size="14.00">questions</text>
<polyline fill="none" stroke="#cbd5e1" points="13,-408.5 126,-408.5 "/>
<text text-anchor="start" x="21" y="-393.3" font-family="Arial" font-size="14.00">publish()</text>
<text text-anchor="start" x="21" y="-378.3" font-family="Arial" font-size="14.00">close()</text>
</g>
<!-- User&#45;&gt;Exam -->
<g id="edge1" class="edge">
<title>User&#45;&gt;Exam</title>
<path fill="none" stroke="#64748b" d="M147.28,-572.72C143.06,-568.06 138.71,-563.36 134.5,-559 124.68,-548.82 119.5,-548.67 111.5,-537 105.19,-527.8 99.57,-517.5 94.65,-507.1"/>
<polygon fill="#64748b" stroke="#64748b" points="97.06,-505.63 91.19,-499.52 91.96,-507.96 97.06,-505.63"/>
<text text-anchor="middle" x="134.5" y="-525.8" font-family="Arial" font-size="14.00">lecturer</text>
</g>
<!-- Submission -->
<g id="node4" class="node">
<title>Submission</title>
<path fill="#f8fafc" stroke="#cbd5e1" d="M140,-166.5C140,-166.5 213,-166.5 213,-166.5 219,-166.5 225,-172.5 225,-178.5 225,-178.5 225,-298.5 225,-298.5 225,-304.5 219,-310.5 213,-310.5 213,-310.5 140,-310.5 140,-310.5 134,-310.5 128,-304.5 128,-298.5 128,-298.5 128,-178.5 128,-178.5 128,-172.5 134,-166.5 140,-166.5"/>
<text text-anchor="middle" x="176.5" y="-295.3" font-family="Arial" font-size="14.00">Submission</text>
<polyline fill="none" stroke="#cbd5e1" points="128,-287.5 225,-287.5 "/>
<text text-anchor="start" x="136" y="-272.3" font-family="Arial" font-size="14.00">answers</text>
<text text-anchor="start" x="136" y="-257.3" font-family="Arial" font-size="14.00">status</text>
<text text-anchor="start" x="136" y="-242.3" font-family="Arial" font-size="14.00">autoScore</text>
<text text-anchor="start" x="136" y="-227.3" font-family="Arial" font-size="14.00">manualScore</text>
<text text-anchor="start" x="136" y="-212.3" font-family="Arial" font-size="14.00">finalScore</text>
<polyline fill="none" stroke="#cbd5e1" points="128,-204.5 225,-204.5 "/>
<text text-anchor="start" x="136" y="-189.3" font-family="Arial" font-size="14.00">submit()</text>
<text text-anchor="start" x="136" y="-174.3" font-family="Arial" font-size="14.00">grade()</text>
</g>
<!-- User&#45;&gt;Submission -->
<g id="edge2" class="edge">
<title>User&#45;&gt;Submission</title>
<path fill="none" stroke="#64748b" d="M174.75,-559.31C175.07,-499.54 175.66,-392.59 176.06,-318.94"/>
<polygon fill="#64748b" stroke="#64748b" points="178.87,-318.59 176.11,-310.58 173.27,-318.56 178.87,-318.59"/>
<text text-anchor="middle" x="198" y="-431.3" font-family="Arial" font-size="14.00">student</text>
</g>
<!-- Question -->
<g id="node3" class="node">
<title>Question</title>
<path fill="#f8fafc" stroke="#cbd5e1" d="M12,-178C12,-178 91,-178 91,-178 97,-178 103,-184 103,-190 103,-190 103,-287 103,-287 103,-293 97,-299 91,-299 91,-299 12,-299 12,-299 6,-299 0,-293 0,-287 0,-287 0,-190 0,-190 0,-184 6,-178 12,-178"/>
<text text-anchor="middle" x="51.5" y="-283.8" font-family="Arial" font-size="14.00">Question</text>
<polyline fill="none" stroke="#cbd5e1" points="0,-276 103,-276 "/>
<text text-anchor="start" x="8" y="-260.8" font-family="Arial" font-size="14.00">id</text>
<text text-anchor="start" x="8" y="-245.8" font-family="Arial" font-size="14.00">type</text>
<text text-anchor="start" x="8" y="-230.8" font-family="Arial" font-size="14.00">text</text>
<text text-anchor="start" x="8" y="-215.8" font-family="Arial" font-size="14.00">points</text>
<text text-anchor="start" x="8" y="-200.8" font-family="Arial" font-size="14.00">options</text>
<text text-anchor="start" x="8" y="-185.8" font-family="Arial" font-size="14.00">correctAnswer</text>
</g>
<!-- Exam&#45;&gt;Question -->
<g id="edge3" class="edge">
<title>Exam&#45;&gt;Question</title>
<path fill="none" stroke="#64748b" d="M63.61,-370.31C61.78,-350.6 59.76,-328.8 57.91,-308.74"/>
<polygon fill="#64748b" stroke="#64748b" points="57.9,-308.6 54.27,-304.12 57.01,-299.04 60.64,-303.53 57.9,-308.6"/>
<text text-anchor="middle" x="87" y="-336.8" font-family="Arial" font-size="14.00">contains</text>
</g>
<!-- Exam&#45;&gt;Submission -->
<g id="edge4" class="edge">
<title>Exam&#45;&gt;Submission</title>
<path fill="none" stroke="#64748b" d="M104.54,-370.31C113.71,-353.64 123.71,-335.47 133.25,-318.11"/>
<polygon fill="#64748b" stroke="#64748b" points="135.91,-319.09 137.31,-310.73 131,-316.39 135.91,-319.09"/>
</g>
<!-- Answer -->
<g id="node5" class="node">
<title>Answer</title>
<path fill="#f8fafc" stroke="#cbd5e1" d="M127.5,-0.5C127.5,-0.5 225.5,-0.5 225.5,-0.5 231.5,-0.5 237.5,-6.5 237.5,-12.5 237.5,-12.5 237.5,-94.5 237.5,-94.5 237.5,-100.5 231.5,-106.5 225.5,-106.5 225.5,-106.5 127.5,-106.5 127.5,-106.5 121.5,-106.5 115.5,-100.5 115.5,-94.5 115.5,-94.5 115.5,-12.5 115.5,-12.5 115.5,-6.5 121.5,-0.5 127.5,-0.5"/>
<text text-anchor="middle" x="176.5" y="-91.3" font-family="Arial" font-size="14.00">Answer</text>
<polyline fill="none" stroke="#cbd5e1" points="115.5,-83.5 237.5,-83.5 "/>
<text text-anchor="start" x="123.5" y="-68.3" font-family="Arial" font-size="14.00">questionId</text>
<text text-anchor="start" x="123.5" y="-53.3" font-family="Arial" font-size="14.00">value</text>
<text text-anchor="start" x="123.5" y="-38.3" font-family="Arial" font-size="14.00">automaticPoints</text>
<text text-anchor="start" x="123.5" y="-23.3" font-family="Arial" font-size="14.00">manualPoints</text>
<text text-anchor="start" x="123.5" y="-8.3" font-family="Arial" font-size="14.00">teacherComment</text>
</g>
<!-- Submission&#45;&gt;Answer -->
<g id="edge5" class="edge">
<title>Submission&#45;&gt;Answer</title>
<path fill="none" stroke="#64748b" d="M176.5,-166.49C176.5,-150.01 176.5,-132.6 176.5,-116.55"/>
<polygon fill="#64748b" stroke="#64748b" points="176.5,-116.35 173.3,-111.55 176.5,-106.75 179.7,-111.55 176.5,-116.35"/>
<text text-anchor="middle" x="202" y="-132.8" font-family="Arial" font-size="14.00">contains</text>
</g>
<!-- AuthService -->
<g id="node6" class="node">
<title>AuthService</title>
<path fill="#ecfdf5" stroke="#10b981" d="M127.5,-696.5C127.5,-696.5 221.5,-696.5 221.5,-696.5 227.5,-696.5 233.5,-702.5 233.5,-708.5 233.5,-708.5 233.5,-760.5 233.5,-760.5 233.5,-766.5 227.5,-772.5 221.5,-772.5 221.5,-772.5 127.5,-772.5 127.5,-772.5 121.5,-772.5 115.5,-766.5 115.5,-760.5 115.5,-760.5 115.5,-708.5 115.5,-708.5 115.5,-702.5 121.5,-696.5 127.5,-696.5"/>
<text text-anchor="middle" x="174.5" y="-757.3" font-family="Arial" font-size="14.00">AuthService</text>
<polyline fill="none" stroke="#10b981" points="115.5,-749.5 233.5,-749.5 "/>
<text text-anchor="start" x="123.5" y="-734.3" font-family="Arial" font-size="14.00">registerStudent()</text>
<text text-anchor="start" x="123.5" y="-719.3" font-family="Arial" font-size="14.00">login()</text>
<text text-anchor="start" x="123.5" y="-704.3" font-family="Arial" font-size="14.00">getCurrentUser()</text>
</g>
<!-- AuthService&#45;&gt;User -->
<g id="edge6" class="edge">
<title>AuthService&#45;&gt;User</title>
<path fill="none" stroke="#64748b" stroke-dasharray="5,2" d="M174.5,-696.28C174.5,-684.58 174.5,-671.43 174.5,-658.87"/>
<polygon fill="#64748b" stroke="#64748b" points="177.3,-658.72 174.5,-650.72 171.7,-658.72 177.3,-658.72"/>
</g>
<!-- ExamService -->
<g id="node7" class="node">
<title>ExamService</title>
<path fill="#ecfdf5" stroke="#10b981" d="M29.5,-559.5C29.5,-559.5 109.5,-559.5 109.5,-559.5 115.5,-559.5 121.5,-565.5 121.5,-571.5 121.5,-571.5 121.5,-638.5 121.5,-638.5 121.5,-644.5 115.5,-650.5 109.5,-650.5 109.5,-650.5 29.5,-650.5 29.5,-650.5 23.5,-650.5 17.5,-644.5 17.5,-638.5 17.5,-638.5 17.5,-571.5 17.5,-571.5 17.5,-565.5 23.5,-559.5 29.5,-559.5"/>
<text text-anchor="middle" x="69.5" y="-635.3" font-family="Arial" font-size="14.00">ExamService</text>
<polyline fill="none" stroke="#10b981" points="17.5,-627.5 121.5,-627.5 "/>
<text text-anchor="start" x="25.5" y="-612.3" font-family="Arial" font-size="14.00">createExam()</text>
<text text-anchor="start" x="25.5" y="-597.3" font-family="Arial" font-size="14.00">updateExam()</text>
<text text-anchor="start" x="25.5" y="-582.3" font-family="Arial" font-size="14.00">publishExam()</text>
<text text-anchor="start" x="25.5" y="-567.3" font-family="Arial" font-size="14.00">listExams()</text>
</g>
<!-- ExamService&#45;&gt;Exam -->
<g id="edge7" class="edge">
<title>ExamService&#45;&gt;Exam</title>
<path fill="none" stroke="#64748b" stroke-dasharray="5,2" d="M69.5,-559.42C69.5,-543.71 69.5,-525.63 69.5,-508.24"/>
<polygon fill="#64748b" stroke="#64748b" points="72.3,-507.76 69.5,-499.76 66.7,-507.76 72.3,-507.76"/>
</g>
<!-- SubmissionService -->
<g id="node8" class="node">
<title>SubmissionService</title>
<path fill="#ecfdf5" stroke="#10b981" d="M269,-389.5C269,-389.5 396,-389.5 396,-389.5 402,-389.5 408,-395.5 408,-401.5 408,-401.5 408,-468.5 408,-468.5 408,-474.5 402,-480.5 396,-480.5 396,-480.5 269,-480.5 269,-480.5 263,-480.5 257,-474.5 257,-468.5 257,-468.5 257,-401.5 257,-401.5 257,-395.5 263,-389.5 269,-389.5"/>
<text text-anchor="middle" x="332.5" y="-465.3" font-family="Arial" font-size="14.00">SubmissionService</text>
<polyline fill="none" stroke="#10b981" points="257,-457.5 408,-457.5 "/>
<text text-anchor="start" x="265" y="-442.3" font-family="Arial" font-size="14.00">startSubmission()</text>
<text text-anchor="start" x="265" y="-427.3" font-family="Arial" font-size="14.00">autosaveSubmission()</text>
<text text-anchor="start" x="265" y="-412.3" font-family="Arial" font-size="14.00">submitExam()</text>
<text text-anchor="start" x="265" y="-397.3" font-family="Arial" font-size="14.00">gradeSubmission()</text>
</g>
<!-- SubmissionService&#45;&gt;Submission -->
<g id="edge8" class="edge">
<title>SubmissionService&#45;&gt;Submission</title>
<path fill="none" stroke="#64748b" stroke-dasharray="5,2" d="M296.71,-389.38C277.06,-364.87 252.29,-333.99 230.35,-306.63"/>
<polygon fill="#64748b" stroke="#64748b" points="232.32,-304.62 225.13,-300.13 227.95,-308.12 232.32,-304.62"/>
</g>
<!-- GradingService -->
<g id="node9" class="node">
<title>GradingService</title>
<path fill="#fff7ed" stroke="#fb923c" d="M262.5,-208C262.5,-208 420.5,-208 420.5,-208 426.5,-208 432.5,-214 432.5,-220 432.5,-220 432.5,-257 432.5,-257 432.5,-263 426.5,-269 420.5,-269 420.5,-269 262.5,-269 262.5,-269 256.5,-269 250.5,-263 250.5,-257 250.5,-257 250.5,-220 250.5,-220 250.5,-214 256.5,-208 262.5,-208"/>
<text text-anchor="middle" x="341.5" y="-253.8" font-family="Arial" font-size="14.00">GradingService</text>
<polyline fill="none" stroke="#fb923c" points="250.5,-246 432.5,-246 "/>
<text text-anchor="start" x="258.5" y="-230.8" font-family="Arial" font-size="14.00">gradeAutomaticQuestions()</text>
<text text-anchor="start" x="258.5" y="-215.8" font-family="Arial" font-size="14.00">applyManualGrades()</text>
</g>
<!-- SubmissionService&#45;&gt;GradingService -->
<g id="edge9" class="edge">
<title>SubmissionService&#45;&gt;GradingService</title>
<path fill="none" stroke="#64748b" stroke-dasharray="5,2" d="M334.56,-389.38C336.13,-355.51 338.26,-309.44 339.75,-277.36"/>
<polygon fill="#64748b" stroke="#64748b" points="342.56,-277.23 340.13,-269.11 336.96,-276.97 342.56,-277.23"/>
</g>
</g>
</svg>
