<?xml version="1.0" encoding="UTF-8" standalone="no"?>
<!DOCTYPE svg PUBLIC "-//W3C//DTD SVG 1.1//EN"
 "http://www.w3.org/Graphics/SVG/1.1/DTD/svg11.dtd">
<!-- Generated by graphviz version 2.42.4 (0)
 -->
<!-- Title: ERD Pages: 1 -->
<svg width="810pt" height="361pt"
 viewBox="0.00 0.00 809.60 361.10" xmlns="http://www.w3.org/2000/svg" xmlns:xlink="http://www.w3.org/1999/xlink">
<g id="graph0" class="graph" transform="scale(1 1) rotate(0) translate(28.8 332.3)">
<title>ERD</title>
<polygon fill="white" stroke="transparent" points="-28.8,28.8 -28.8,-332.3 780.8,-332.3 780.8,28.8 -28.8,28.8"/>
<!-- users -->
<g id="node1" class="node">
<title>users</title>
<polygon fill="#eef2ff" stroke="transparent" points="1.5,-160.5 1.5,-189.5 110.5,-189.5 110.5,-160.5 1.5,-160.5"/>
<text text-anchor="start" x="32.5" y="-172.3" font-family="Arial" font-weight="bold" font-size="14.00">USERS</text>
<text text-anchor="start" x="8.5" y="-142.3" font-family="Arial" font-size="14.00">PK id</text>
<text text-anchor="start" x="8.5" y="-113.3" font-family="Arial" font-size="14.00">name</text>
<text text-anchor="start" x="8.5" y="-84.3" font-family="Arial" font-size="14.00">email (unique)</text>
<text text-anchor="start" x="8.5" y="-55.3" font-family="Arial" font-size="14.00">password_hash</text>
<text text-anchor="start" x="8.5" y="-26.3" font-family="Arial" font-size="14.00">role</text>
<polygon fill="none" stroke="#6366f1" points="0,-14.5 0,-190.5 111,-190.5 111,-14.5 0,-14.5"/>
</g>
<!-- exams -->
<g id="node2" class="node">
<title>exams</title>
<polygon fill="#ecfdf5" stroke="transparent" points="320,-273.5 320,-302.5 442,-302.5 442,-273.5 320,-273.5"/>
<text text-anchor="start" x="356.5" y="-285.3" font-family="Arial" font-weight="bold" font-size="14.00">EXAMS</text>
<text text-anchor="start" x="327" y="-255.3" font-family="Arial" font-size="14.00">PK id</text>
<text text-anchor="start" x="327" y="-226.3" font-family="Arial" font-size="14.00">FK lecturer_id</text>
<text text-anchor="start" x="327" y="-197.3" font-family="Arial" font-size="14.00">title / description</text>
<text text-anchor="start" x="327" y="-168.3" font-family="Arial" font-size="14.00">duration / status</text>
<text text-anchor="start" x="327" y="-139.3" font-family="Arial" font-size="14.00">questions JSONB</text>
<polygon fill="none" stroke="#10b981" points="319,-127.5 319,-303.5 443,-303.5 443,-127.5 319,-127.5"/>
</g>
<!-- users&#45;&gt;exams -->
<g id="edge1" class="edge">
<title>users&#45;&gt;exams</title>
<path fill="none" stroke="#64748b" d="M111.01,-121.54C165.51,-140.58 249.57,-169.94 309.2,-190.77"/>
<polygon fill="#64748b" stroke="#64748b" points="308.32,-194.17 318.92,-194.16 310.63,-187.56 308.32,-194.17"/>
<text text-anchor="middle" x="215" y="-185.3" font-family="Arial" font-size="14.00">1 lecturer creates many</text>
</g>
<!-- submissions -->
<g id="node3" class="node">
<title>submissions</title>
<polygon fill="#fffbeb" stroke="transparent" points="619,-174.5 619,-203.5 751,-203.5 751,-174.5 619,-174.5"/>
<text text-anchor="start" x="636.5" y="-186.3" font-family="Arial" font-weight="bold" font-size="14.00">SUBMISSIONS</text>
<text text-anchor="start" x="626" y="-156.3" font-family="Arial" font-size="14.00">PK id</text>
<text text-anchor="start" x="626" y="-127.3" font-family="Arial" font-size="14.00">FK exam_id</text>
<text text-anchor="start" x="626" y="-98.3" font-family="Arial" font-size="14.00">FK student_id</text>
<text text-anchor="start" x="626" y="-69.3" font-family="Arial" font-size="14.00">answers JSONB</text>
<text text-anchor="start" x="626" y="-40.3" font-family="Arial" font-size="14.00">scores / feedback</text>
<text text-anchor="start" x="626" y="-11.3" font-family="Arial" font-size="14.00">status / timestamps</text>
<polygon fill="none" stroke="#f59e0b" points="618,0 618,-205 752,-205 752,0 618,0"/>
</g>
<!-- users&#45;&gt;submissions -->
<g id="edge2" class="edge">
<title>users&#45;&gt;submissions</title>
<path fill="none" stroke="#64748b" d="M111.22,-97.97C186.09,-92.32 324.7,-83.82 443,-87.5 498.14,-89.21 560.27,-93.13 607.64,-96.53"/>
<polygon fill="#64748b" stroke="#64748b" points="607.59,-100.04 617.82,-97.27 608.1,-93.05 607.59,-100.04"/>
<text text-anchor="middle" x="381" y="-91.3" font-family="Arial" font-size="14.00">1 student has many</text>
</g>
<!-- exams&#45;&gt;submissions -->
<g id="edge3" class="edge">
<title>exams&#45;&gt;submissions</title>
<path fill="none" stroke="#64748b" d="M443.11,-192.63C490.72,-174.82 557.06,-150 608.07,-130.91"/>
<polygon fill="#64748b" stroke="#64748b" points="609.6,-134.08 617.74,-127.29 607.14,-127.52 609.6,-134.08"/>
<text text-anchor="middle" x="530.5" y="-182.3" font-family="Arial" font-size="14.00">1 exam has many</text>
</g>
</g>
</svg>
