<?xml version="1.0" encoding="UTF-8" standalone="no"?>
<!DOCTYPE svg PUBLIC "-//W3C//DTD SVG 1.1//EN"
 "http://www.w3.org/Graphics/SVG/1.1/DTD/svg11.dtd">
<!-- Generated by graphviz version 2.42.4 (0)
 -->
<!-- Title: S Pages: 1 -->
<svg width="2086pt" height="96pt"
 viewBox="0.00 0.00 2085.60 95.60" xmlns="http://www.w3.org/2000/svg" xmlns:xlink="http://www.w3.org/1999/xlink">
<g id="graph0" class="graph" transform="scale(1 1) rotate(0) translate(28.8 66.8)">
<title>S</title>
<polygon fill="white" stroke="transparent" points="-28.8,28.8 -28.8,-66.8 2056.8,-66.8 2056.8,28.8 -28.8,28.8"/>
<!-- a -->
<g id="node1" class="node">
<title>a</title>
<path fill="#eef2ff" stroke="#6366f1" d="M206,-37C206,-37 12,-37 12,-37 6,-37 0,-31 0,-25 0,-25 0,-13 0,-13 0,-7 6,-1 12,-1 12,-1 206,-1 206,-1 212,-1 218,-7 218,-13 218,-13 218,-25 218,-25 218,-31 212,-37 206,-37"/>
<text text-anchor="middle" x="109" y="-15.3" font-family="Arial" font-size="14.00">1. Student opens published exam</text>
</g>
<!-- b -->
<g id="node2" class="node">
<title>b</title>
<path fill="#f8fafc" stroke="#cbd5e1" d="M468,-37C468,-37 280,-37 280,-37 274,-37 268,-31 268,-25 268,-25 268,-13 268,-13 268,-7 274,-1 280,-1 280,-1 468,-1 468,-1 474,-1 480,-7 480,-13 480,-13 480,-25 480,-25 480,-31 474,-37 468,-37"/>
<text text-anchor="middle" x="374" y="-15.3" font-family="Arial" font-size="14.00">2. API creates/loads one attempt</text>
</g>
<!-- a&#45;&gt;b -->
<g id="edge1" class="edge">
<title>a&#45;&gt;b</title>
<path fill="none" stroke="#64748b" d="M218.11,-19C231.21,-19 244.62,-19 257.82,-19"/>
<polygon fill="#64748b" stroke="#64748b" points="257.85,-22.5 267.85,-19 257.85,-15.5 257.85,-22.5"/>
</g>
<!-- c -->
<g id="node3" class="node">
<title>c</title>
<path fill="#f8fafc" stroke="#cbd5e1" d="M693,-38C693,-38 542,-38 542,-38 536,-38 530,-32 530,-26 530,-26 530,-12 530,-12 530,-6 536,0 542,0 542,0 693,0 693,0 699,0 705,-6 705,-12 705,-12 705,-26 705,-26 705,-32 699,-38 693,-38"/>
<text text-anchor="middle" x="617.5" y="-22.8" font-family="Arial" font-size="14.00">3. Safe questions returned</text>
<text text-anchor="middle" x="617.5" y="-7.8" font-family="Arial" font-size="14.00">(no correct answers)</text>
</g>
<!-- b&#45;&gt;c -->
<g id="edge2" class="edge">
<title>b&#45;&gt;c</title>
<path fill="none" stroke="#64748b" d="M480.22,-19C493.26,-19 506.55,-19 519.45,-19"/>
<polygon fill="#64748b" stroke="#64748b" points="519.71,-22.5 529.71,-19 519.71,-15.5 519.71,-22.5"/>
</g>
<!-- d -->
<g id="node4" class="node">
<title>d</title>
<path fill="#f8fafc" stroke="#cbd5e1" d="M984,-37C984,-37 767,-37 767,-37 761,-37 755,-31 755,-25 755,-25 755,-13 755,-13 755,-7 761,-1 767,-1 767,-1 984,-1 984,-1 990,-1 996,-7 996,-13 996,-13 996,-25 996,-25 996,-31 990,-37 984,-37"/>
<text text-anchor="middle" x="875.5" y="-15.3" font-family="Arial" font-size="14.00">4. Client autosaves every 10 seconds</text>
</g>
<!-- c&#45;&gt;d -->
<g id="edge3" class="edge">
<title>c&#45;&gt;d</title>
<path fill="none" stroke="#64748b" d="M705.17,-19C717.88,-19 731.21,-19 744.56,-19"/>
<polygon fill="#64748b" stroke="#64748b" points="744.77,-22.5 754.77,-19 744.77,-15.5 744.77,-22.5"/>
</g>
<!-- e -->
<g id="node5" class="node">
<title>e</title>
<path fill="#eff6ff" stroke="#3b82f6" d="M1307,-33.73C1307,-35.53 1248.51,-37 1176.5,-37 1104.49,-37 1046,-35.53 1046,-33.73 1046,-33.73 1046,-4.27 1046,-4.27 1046,-2.47 1104.49,-1 1176.5,-1 1248.51,-1 1307,-2.47 1307,-4.27 1307,-4.27 1307,-33.73 1307,-33.73"/>
<path fill="none" stroke="#3b82f6" d="M1307,-33.73C1307,-31.92 1248.51,-30.45 1176.5,-30.45 1104.49,-30.45 1046,-31.92 1046,-33.73"/>
<text text-anchor="middle" x="1176.5" y="-15.3" font-family="Arial" font-size="14.00">5. PostgreSQL updates answers JSONB</text>
</g>
<!-- d&#45;&gt;e -->
<g id="edge4" class="edge">
<title>d&#45;&gt;e</title>
<path fill="none" stroke="#64748b" d="M996.39,-19C1009.34,-19 1022.59,-19 1035.75,-19"/>
<polygon fill="#64748b" stroke="#64748b" points="1035.78,-22.5 1045.78,-19 1035.78,-15.5 1035.78,-22.5"/>
</g>
<!-- f -->
<g id="node6" class="node">
<title>f</title>
<path fill="#f8fafc" stroke="#cbd5e1" d="M1474,-37C1474,-37 1369,-37 1369,-37 1363,-37 1357,-31 1357,-25 1357,-25 1357,-13 1357,-13 1357,-7 1363,-1 1369,-1 1369,-1 1474,-1 1474,-1 1480,-1 1486,-7 1486,-13 1486,-13 1486,-25 1486,-25 1486,-31 1480,-37 1474,-37"/>
<text text-anchor="middle" x="1421.5" y="-15.3" font-family="Arial" font-size="14.00">6. Student submits</text>
</g>
<!-- e&#45;&gt;f -->
<g id="edge5" class="edge">
<title>e&#45;&gt;f</title>
<path fill="none" stroke="#64748b" d="M1307.18,-19C1320.61,-19 1333.91,-19 1346.41,-19"/>
<polygon fill="#64748b" stroke="#64748b" points="1346.71,-22.5 1356.71,-19 1346.71,-15.5 1346.71,-22.5"/>
</g>
<!-- g -->
<g id="node7" class="node">
<title>g</title>
<path fill="#ecfdf5" stroke="#10b981" d="M1723,-37C1723,-37 1548,-37 1548,-37 1542,-37 1536,-31 1536,-25 1536,-25 1536,-13 1536,-13 1536,-7 1542,-1 1548,-1 1548,-1 1723,-1 1723,-1 1729,-1 1735,-7 1735,-13 1735,-13 1735,-25 1735,-25 1735,-31 1729,-37 1723,-37"/>
<text text-anchor="middle" x="1635.5" y="-15.3" font-family="Arial" font-size="14.00">7. Automatic questions graded</text>
</g>
<!-- f&#45;&gt;g -->
<g id="edge6" class="edge">
<title>f&#45;&gt;g</title>
<path fill="none" stroke="#64748b" d="M1486.11,-19C1498.55,-19 1511.92,-19 1525.36,-19"/>
<polygon fill="#64748b" stroke="#64748b" points="1525.64,-22.5 1535.64,-19 1525.64,-15.5 1525.64,-22.5"/>
</g>
<!-- h -->
<g id="node8" class="node">
<title>h</title>
<path fill="#f8fafc" stroke="#cbd5e1" d="M2016,-37C2016,-37 1797,-37 1797,-37 1791,-37 1785,-31 1785,-25 1785,-25 1785,-13 1785,-13 1785,-7 1791,-1 1797,-1 1797,-1 2016,-1 2016,-1 2022,-1 2028,-7 2028,-13 2028,-13 2028,-25 2028,-25 2028,-31 2022,-37 2016,-37"/>
<text text-anchor="middle" x="1906.5" y="-15.3" font-family="Arial" font-size="14.00">8. Submission waits for manual grade</text>
</g>
<!-- g&#45;&gt;h -->
<g id="edge7" class="edge">
<title>g&#45;&gt;h</title>
<path fill="none" stroke="#64748b" d="M1735.14,-19C1748.04,-19 1761.42,-19 1774.75,-19"/>
<polygon fill="#64748b" stroke="#64748b" points="1774.93,-22.5 1784.93,-19 1774.93,-15.5 1774.93,-22.5"/>
</g>
</g>
</svg>
