<?xml version="1.0" encoding="UTF-8" standalone="no"?>
<!DOCTYPE svg PUBLIC "-//W3C//DTD SVG 1.1//EN"
 "http://www.w3.org/Graphics/SVG/1.1/DTD/svg11.dtd">
<!-- Generated by graphviz version 2.42.4 (0)
 -->
<!-- Title: S Pages: 1 -->
<svg width="2268pt" height="94pt"
 viewBox="0.00 0.00 2267.60 93.60" xmlns="http://www.w3.org/2000/svg" xmlns:xlink="http://www.w3.org/1999/xlink">
<g id="graph0" class="graph" transform="scale(1 1) rotate(0) translate(28.8 64.8)">
<title>S</title>
<polygon fill="white" stroke="transparent" points="-28.8,28.8 -28.8,-64.8 2238.8,-64.8 2238.8,28.8 -28.8,28.8"/>
<!-- a -->
<g id="node1" class="node">
<title>a</title>
<path fill="#eef2ff" stroke="#6366f1" d="M182,-36C182,-36 12,-36 12,-36 6,-36 0,-30 0,-24 0,-24 0,-12 0,-12 0,-6 6,0 12,0 12,0 182,0 182,0 188,0 194,-6 194,-12 194,-12 194,-24 194,-24 194,-30 188,-36 182,-36"/>
<text text-anchor="middle" x="97" y="-14.3" font-family="Arial" font-size="14.00">1. Lecturer opens submission</text>
</g>
<!-- b -->
<g id="node2" class="node">
<title>b</title>
<path fill="#f8fafc" stroke="#cbd5e1" d="M490,-36C490,-36 256,-36 256,-36 250,-36 244,-30 244,-24 244,-24 244,-12 244,-12 244,-6 250,0 256,0 256,0 490,0 490,0 496,0 502,-6 502,-12 502,-12 502,-24 502,-24 502,-30 496,-36 490,-36"/>
<text text-anchor="middle" x="373" y="-14.3" font-family="Arial" font-size="14.00">2. API loads exam, answers and student</text>
</g>
<!-- a&#45;&gt;b -->
<g id="edge1" class="edge">
<title>a&#45;&gt;b</title>
<path fill="none" stroke="#64748b" d="M194.22,-18C207,-18 220.3,-18 233.61,-18"/>
<polygon fill="#64748b" stroke="#64748b" points="233.79,-21.5 243.79,-18 233.79,-14.5 233.79,-21.5"/>
</g>
<!-- c -->
<g id="node3" class="node">
<title>c</title>
<path fill="#f8fafc" stroke="#cbd5e1" d="M800,-36C800,-36 564,-36 564,-36 558,-36 552,-30 552,-24 552,-24 552,-12 552,-12 552,-6 558,0 564,0 564,0 800,0 800,0 806,0 812,-6 812,-12 812,-12 812,-24 812,-24 812,-30 806,-36 800,-36"/>
<text text-anchor="middle" x="682" y="-14.3" font-family="Arial" font-size="14.00">3. Lecturer assigns open&#45;question points</text>
</g>
<!-- b&#45;&gt;c -->
<g id="edge2" class="edge">
<title>b&#45;&gt;c</title>
<path fill="none" stroke="#64748b" d="M502.42,-18C515.25,-18 528.33,-18 541.27,-18"/>
<polygon fill="#64748b" stroke="#64748b" points="541.62,-21.5 551.62,-18 541.62,-14.5 541.62,-21.5"/>
</g>
<!-- d -->
<g id="node4" class="node">
<title>d</title>
<path fill="#ecfdf5" stroke="#10b981" d="M1056,-36C1056,-36 874,-36 874,-36 868,-36 862,-30 862,-24 862,-24 862,-12 862,-12 862,-6 868,0 874,0 874,0 1056,0 1056,0 1062,0 1068,-6 1068,-12 1068,-12 1068,-24 1068,-24 1068,-30 1062,-36 1056,-36"/>
<text text-anchor="middle" x="965" y="-14.3" font-family="Arial" font-size="14.00">4. Service calculates final score</text>
</g>
<!-- c&#45;&gt;d -->
<g id="edge3" class="edge">
<title>c&#45;&gt;d</title>
<path fill="none" stroke="#64748b" d="M812.4,-18C825.47,-18 838.67,-18 851.54,-18"/>
<polygon fill="#64748b" stroke="#64748b" points="851.78,-21.5 861.78,-18 851.78,-14.5 851.78,-21.5"/>
</g>
<!-- e -->
<g id="node5" class="node">
<title>e</title>
<path fill="#eff6ff" stroke="#3b82f6" d="M1373,-32.73C1373,-34.53 1315.85,-36 1245.5,-36 1175.15,-36 1118,-34.53 1118,-32.73 1118,-32.73 1118,-3.27 1118,-3.27 1118,-1.47 1175.15,0 1245.5,0 1315.85,0 1373,-1.47 1373,-3.27 1373,-3.27 1373,-32.73 1373,-32.73"/>
<path fill="none" stroke="#3b82f6" d="M1373,-32.73C1373,-30.92 1315.85,-29.45 1245.5,-29.45 1175.15,-29.45 1118,-30.92 1118,-32.73"/>
<text text-anchor="middle" x="1245.5" y="-14.3" font-family="Arial" font-size="14.00">5. PostgreSQL stores grade + feedback</text>
</g>
<!-- d&#45;&gt;e -->
<g id="edge4" class="edge">
<title>d&#45;&gt;e</title>
<path fill="none" stroke="#64748b" d="M1068.12,-18C1080.99,-18 1094.31,-18 1107.6,-18"/>
<polygon fill="#64748b" stroke="#64748b" points="1107.75,-21.5 1117.75,-18 1107.75,-14.5 1107.75,-21.5"/>
</g>
<!-- f -->
<g id="node6" class="node">
<title>f</title>
<path fill="#f8fafc" stroke="#cbd5e1" d="M1659,-36C1659,-36 1435,-36 1435,-36 1429,-36 1423,-30 1423,-24 1423,-24 1423,-12 1423,-12 1423,-6 1429,0 1435,0 1435,0 1659,0 1659,0 1665,0 1671,-6 1671,-12 1671,-12 1671,-24 1671,-24 1671,-30 1665,-36 1659,-36"/>
<text text-anchor="middle" x="1547" y="-14.3" font-family="Arial" font-size="14.00">6. Lecturer publishes all graded results</text>
</g>
<!-- e&#45;&gt;f -->
<g id="edge5" class="edge">
<title>e&#45;&gt;f</title>
<path fill="none" stroke="#64748b" d="M1373.08,-18C1386.18,-18 1399.53,-18 1412.71,-18"/>
<polygon fill="#64748b" stroke="#64748b" points="1412.74,-21.5 1422.74,-18 1412.74,-14.5 1412.74,-21.5"/>
</g>
<!-- g -->
<g id="node7" class="node">
<title>g</title>
<path fill="#fff7ed" stroke="#fb923c" d="M1911,-36C1911,-36 1733,-36 1733,-36 1727,-36 1721,-30 1721,-24 1721,-24 1721,-12 1721,-12 1721,-6 1727,0 1733,0 1733,0 1911,0 1911,0 1917,0 1923,-6 1923,-12 1923,-12 1923,-24 1923,-24 1923,-30 1917,-36 1911,-36"/>
<text text-anchor="middle" x="1822" y="-14.3" font-family="Arial" font-size="14.00">7. WebSocket notifies students</text>
</g>
<!-- f&#45;&gt;g -->
<g id="edge6" class="edge">
<title>f&#45;&gt;g</title>
<path fill="none" stroke="#64748b" d="M1671.32,-18C1684.37,-18 1697.57,-18 1710.46,-18"/>
<polygon fill="#64748b" stroke="#64748b" points="1710.72,-21.5 1720.72,-18 1710.72,-14.5 1710.72,-21.5"/>
</g>
<!-- h -->
<g id="node8" class="node">
<title>h</title>
<path fill="#f8fafc" stroke="#cbd5e1" d="M2198,-36C2198,-36 1985,-36 1985,-36 1979,-36 1973,-30 1973,-24 1973,-24 1973,-12 1973,-12 1973,-6 1979,0 1985,0 1985,0 2198,0 2198,0 2204,0 2210,-6 2210,-12 2210,-12 2210,-24 2210,-24 2210,-30 2204,-36 2198,-36"/>
<text text-anchor="middle" x="2091.5" y="-14.3" font-family="Arial" font-size="14.00">8. Student views score and feedback</text>
</g>
<!-- g&#45;&gt;h -->
<g id="edge7" class="edge">
<title>g&#45;&gt;h</title>
<path fill="none" stroke="#64748b" d="M1923.37,-18C1936.25,-18 1949.56,-18 1962.8,-18"/>
<polygon fill="#64748b" stroke="#64748b" points="1962.9,-21.5 1972.9,-18 1962.9,-14.5 1962.9,-21.5"/>
</g>
</g>
</svg>
