<?xml version="1.0" encoding="UTF-8" standalone="no"?>
<!DOCTYPE svg PUBLIC "-//W3C//DTD SVG 1.1//EN"
 "http://www.w3.org/Graphics/SVG/1.1/DTD/svg11.dtd">
<!-- Generated by graphviz version 2.42.4 (0)
 -->
<!-- Title: S Pages: 1 -->
<svg width="2107pt" height="94pt"
 viewBox="0.00 0.00 2106.60 93.60" xmlns="http://www.w3.org/2000/svg" xmlns:xlink="http://www.w3.org/1999/xlink">
<g id="graph0" class="graph" transform="scale(1 1) rotate(0) translate(28.8 64.8)">
<title>S</title>
<polygon fill="white" stroke="transparent" points="-28.8,28.8 -28.8,-64.8 2077.8,-64.8 2077.8,28.8 -28.8,28.8"/>
<!-- a -->
<g id="node1" class="node">
<title>a</title>
<path fill="#eef2ff" stroke="#6366f1" d="M161,-36C161,-36 12,-36 12,-36 6,-36 0,-30 0,-24 0,-24 0,-12 0,-12 0,-6 6,0 12,0 12,0 161,0 161,0 167,0 173,-6 173,-12 173,-12 173,-24 173,-24 173,-30 167,-36 161,-36"/>
<text text-anchor="middle" x="86.5" y="-14.3" font-family="Arial" font-size="14.00">1. Lecturer fills exam form</text>
</g>
<!-- b -->
<g id="node2" class="node">
<title>b</title>
<path fill="#f8fafc" stroke="#cbd5e1" d="M473,-36C473,-36 235,-36 235,-36 229,-36 223,-30 223,-24 223,-24 223,-12 223,-12 223,-6 229,0 235,0 235,0 473,0 473,0 479,0 485,-6 485,-12 485,-12 485,-24 485,-24 485,-30 479,-36 473,-36"/>
<text text-anchor="middle" x="354" y="-14.3" font-family="Arial" font-size="14.00">2. React sends POST /api/exams + JWT</text>
</g>
<!-- a&#45;&gt;b -->
<g id="edge1" class="edge">
<title>a&#45;&gt;b</title>
<path fill="none" stroke="#64748b" d="M173.33,-18C185.89,-18 199.09,-18 212.39,-18"/>
<polygon fill="#64748b" stroke="#64748b" points="212.58,-21.5 222.58,-18 212.58,-14.5 212.58,-21.5"/>
</g>
<!-- c -->
<g id="node3" class="node">
<title>c</title>
<path fill="#f8fafc" stroke="#cbd5e1" d="M697,-36C697,-36 547,-36 547,-36 541,-36 535,-30 535,-24 535,-24 535,-12 535,-12 535,-6 541,0 547,0 547,0 697,0 697,0 703,0 709,-6 709,-12 709,-12 709,-24 709,-24 709,-30 703,-36 697,-36"/>
<text text-anchor="middle" x="622" y="-14.3" font-family="Arial" font-size="14.00">3. API verifies teacher role</text>
</g>
<!-- b&#45;&gt;c -->
<g id="edge2" class="edge">
<title>b&#45;&gt;c</title>
<path fill="none" stroke="#64748b" d="M485.27,-18C498.57,-18 511.9,-18 524.74,-18"/>
<polygon fill="#64748b" stroke="#64748b" points="524.91,-21.5 534.91,-18 524.91,-14.5 524.91,-21.5"/>
</g>
<!-- d -->
<g id="node4" class="node">
<title>d</title>
<path fill="#f8fafc" stroke="#cbd5e1" d="M942,-36C942,-36 771,-36 771,-36 765,-36 759,-30 759,-24 759,-24 759,-12 759,-12 759,-6 765,0 771,0 771,0 942,0 942,0 948,0 954,-6 954,-12 954,-12 954,-24 954,-24 954,-30 948,-36 942,-36"/>
<text text-anchor="middle" x="856.5" y="-14.3" font-family="Arial" font-size="14.00">4. Service validates questions</text>
</g>
<!-- c&#45;&gt;d -->
<g id="edge3" class="edge">
<title>c&#45;&gt;d</title>
<path fill="none" stroke="#64748b" d="M709.24,-18C722.12,-18 735.52,-18 748.75,-18"/>
<polygon fill="#64748b" stroke="#64748b" points="748.83,-21.5 758.83,-18 748.83,-14.5 748.83,-21.5"/>
</g>
<!-- e -->
<g id="node5" class="node">
<title>e</title>
<path fill="#eff6ff" stroke="#3b82f6" d="M1243,-32.73C1243,-34.53 1189.44,-36 1123.5,-36 1057.56,-36 1004,-34.53 1004,-32.73 1004,-32.73 1004,-3.27 1004,-3.27 1004,-1.47 1057.56,0 1123.5,0 1189.44,0 1243,-1.47 1243,-3.27 1243,-3.27 1243,-32.73 1243,-32.73"/>
<path fill="none" stroke="#3b82f6" d="M1243,-32.73C1243,-30.92 1189.44,-29.45 1123.5,-29.45 1057.56,-29.45 1004,-30.92 1004,-32.73"/>
<text text-anchor="middle" x="1123.5" y="-14.3" font-family="Arial" font-size="14.00">5. PostgreSQL stores draft + JSONB</text>
</g>
<!-- d&#45;&gt;e -->
<g id="edge4" class="edge">
<title>d&#45;&gt;e</title>
<path fill="none" stroke="#64748b" d="M954.3,-18C967.14,-18 980.46,-18 993.74,-18"/>
<polygon fill="#64748b" stroke="#64748b" points="993.87,-21.5 1003.87,-18 993.87,-14.5 993.87,-21.5"/>
</g>
<!-- f -->
<g id="node6" class="node">
<title>f</title>
<path fill="#f8fafc" stroke="#cbd5e1" d="M1460,-36C1460,-36 1305,-36 1305,-36 1299,-36 1293,-30 1293,-24 1293,-24 1293,-12 1293,-12 1293,-6 1299,0 1305,0 1305,0 1460,0 1460,0 1466,0 1472,-6 1472,-12 1472,-12 1472,-24 1472,-24 1472,-30 1466,-36 1460,-36"/>
<text text-anchor="middle" x="1382.5" y="-14.3" font-family="Arial" font-size="14.00">6. Lecturer publishes exam</text>
</g>
<!-- e&#45;&gt;f -->
<g id="edge5" class="edge">
<title>e&#45;&gt;f</title>
<path fill="none" stroke="#64748b" d="M1243.22,-18C1256.4,-18 1269.72,-18 1282.61,-18"/>
<polygon fill="#64748b" stroke="#64748b" points="1282.86,-21.5 1292.86,-18 1282.86,-14.5 1282.86,-21.5"/>
</g>
<!-- g -->
<g id="node7" class="node">
<title>g</title>
<path fill="#ecfdf5" stroke="#10b981" d="M1787,-36C1787,-36 1534,-36 1534,-36 1528,-36 1522,-30 1522,-24 1522,-24 1522,-12 1522,-12 1522,-6 1528,0 1534,0 1534,0 1787,0 1787,0 1793,0 1799,-6 1799,-12 1799,-12 1799,-24 1799,-24 1799,-30 1793,-36 1787,-36"/>
<text text-anchor="middle" x="1660.5" y="-14.3" font-family="Arial" font-size="14.00">7. API updates status and broadcasts event</text>
</g>
<!-- f&#45;&gt;g -->
<g id="edge6" class="edge">
<title>f&#45;&gt;g</title>
<path fill="none" stroke="#64748b" d="M1472.35,-18C1484.97,-18 1498.22,-18 1511.59,-18"/>
<polygon fill="#64748b" stroke="#64748b" points="1511.84,-21.5 1521.84,-18 1511.84,-14.5 1511.84,-21.5"/>
</g>
<!-- h -->
<g id="node8" class="node">
<title>h</title>
<path fill="#fff7ed" stroke="#fb923c" d="M2037,-36C2037,-36 1861,-36 1861,-36 1855,-36 1849,-30 1849,-24 1849,-24 1849,-12 1849,-12 1849,-6 1855,0 1861,0 1861,0 2037,0 2037,0 2043,0 2049,-6 2049,-12 2049,-12 2049,-24 2049,-24 2049,-30 2043,-36 2037,-36"/>
<text text-anchor="middle" x="1949" y="-14.3" font-family="Arial" font-size="14.00">8. Students receive notification</text>
</g>
<!-- g&#45;&gt;h -->
<g id="edge7" class="edge">
<title>g&#45;&gt;h</title>
<path fill="none" stroke="#64748b" d="M1799.3,-18C1812.53,-18 1825.83,-18 1838.73,-18"/>
<polygon fill="#64748b" stroke="#64748b" points="1838.99,-21.5 1848.99,-18 1838.99,-14.5 1838.99,-21.5"/>
</g>
</g>
</svg>
