<?xml version="1.0" encoding="UTF-8" standalone="no"?>
<!DOCTYPE svg PUBLIC "-//W3C//DTD SVG 1.1//EN"
 "http://www.w3.org/Graphics/SVG/1.1/DTD/svg11.dtd">
<!-- Generated by graphviz version 2.42.4 (0)
 -->
<!-- Title: G Pages: 1 -->
<svg width="1874pt" height="204pt"
 viewBox="0.00 0.00 1874.10 203.60" xmlns="http://www.w3.org/2000/svg" xmlns:xlink="http://www.w3.org/1999/xlink">
<g id="graph0" class="graph" transform="scale(1 1) rotate(0) translate(28.8 174.8)">
<title>G</title>
<polygon fill="white" stroke="transparent" points="-28.8,28.8 -28.8,-174.8 1845.3,-174.8 1845.3,28.8 -28.8,28.8"/>
<!-- users -->
<g id="node1" class="node">
<title>users</title>
<ellipse fill="#eef2ff" stroke="#818cf8" cx="94.75" cy="-33" rx="94.51" ry="23.17"/>
<text text-anchor="middle" x="94.75" y="-29.3" font-family="Arial" font-size="14.00">Lecturer / Student</text>
</g>
<!-- client -->
<g id="node2" class="node">
<title>client</title>
<path fill="#eef2ff" stroke="#6366f1" d="M522.5,-57C522.5,-57 301.5,-57 301.5,-57 295.5,-57 289.5,-51 289.5,-45 289.5,-45 289.5,-21 289.5,-21 289.5,-15 295.5,-9 301.5,-9 301.5,-9 522.5,-9 522.5,-9 528.5,-9 534.5,-15 534.5,-21 534.5,-21 534.5,-45 534.5,-45 534.5,-51 528.5,-57 522.5,-57"/>
<text text-anchor="middle" x="412" y="-36.8" font-family="Arial" font-size="14.00">React Client</text>
<text text-anchor="middle" x="412" y="-21.8" font-family="Arial" font-size="14.00">Pages • Components • Auth Context</text>
</g>
<!-- users&#45;&gt;client -->
<g id="edge1" class="edge">
<title>users&#45;&gt;client</title>
<path fill="none" stroke="#64748b" d="M189.91,-33C218.56,-33 250.56,-33 281.13,-33"/>
<polygon fill="#64748b" stroke="#64748b" points="281.29,-35.8 289.29,-33 281.29,-30.2 281.29,-35.8"/>
<text text-anchor="middle" x="239.5" y="-36.8" font-family="Arial" font-size="14.00">Browser</text>
</g>
<!-- api -->
<g id="node3" class="node">
<title>api</title>
<path fill="#ecfdf5" stroke="#10b981" d="M921.5,-101C921.5,-101 733.5,-101 733.5,-101 727.5,-101 721.5,-95 721.5,-89 721.5,-89 721.5,-65 721.5,-65 721.5,-59 727.5,-53 733.5,-53 733.5,-53 921.5,-53 921.5,-53 927.5,-53 933.5,-59 933.5,-65 933.5,-65 933.5,-89 933.5,-89 933.5,-95 927.5,-101 921.5,-101"/>
<text text-anchor="middle" x="827.5" y="-80.8" font-family="Arial" font-size="14.00">Node.js / Express API</text>
<text text-anchor="middle" x="827.5" y="-65.8" font-family="Arial" font-size="14.00">Routes • Controllers • Services</text>
</g>
<!-- client&#45;&gt;api -->
<g id="edge2" class="edge">
<title>client&#45;&gt;api</title>
<path fill="none" stroke="#64748b" d="M534.55,-45.93C590.99,-51.94 657.69,-59.04 713.07,-64.93"/>
<polygon fill="#64748b" stroke="#64748b" points="712.91,-67.73 721.16,-65.79 713.5,-62.16 712.91,-67.73"/>
<text text-anchor="middle" x="628" y="-65.8" font-family="Arial" font-size="14.00">HTTPS / JSON + JWT</text>
</g>
<!-- auth -->
<g id="node4" class="node">
<title>auth</title>
<path fill="#f8fafc" stroke="#cbd5e1" d="M1191.5,-115C1191.5,-115 1035.5,-115 1035.5,-115 1029.5,-115 1023.5,-109 1023.5,-103 1023.5,-103 1023.5,-91 1023.5,-91 1023.5,-85 1029.5,-79 1035.5,-79 1035.5,-79 1191.5,-79 1191.5,-79 1197.5,-79 1203.5,-85 1203.5,-91 1203.5,-91 1203.5,-103 1203.5,-103 1203.5,-109 1197.5,-115 1191.5,-115"/>
<text text-anchor="middle" x="1113.5" y="-93.3" font-family="Arial" font-size="14.00">JWT + Role Authorization</text>
</g>
<!-- api&#45;&gt;auth -->
<g id="edge3" class="edge">
<title>api&#45;&gt;auth</title>
<path fill="none" stroke="#64748b" d="M933.85,-84.42C960.46,-86.29 988.91,-88.3 1015.11,-90.14"/>
<polygon fill="#64748b" stroke="#64748b" points="1014.99,-92.94 1023.16,-90.71 1015.38,-87.35 1014.99,-92.94"/>
</g>
<!-- ws -->
<g id="node7" class="node">
<title>ws</title>
<path fill="#fff7ed" stroke="#fb923c" d="M1188,-36C1188,-36 1039,-36 1039,-36 1033,-36 1027,-30 1027,-24 1027,-24 1027,-12 1027,-12 1027,-6 1033,0 1039,0 1039,0 1188,0 1188,0 1194,0 1200,-6 1200,-12 1200,-12 1200,-24 1200,-24 1200,-30 1194,-36 1188,-36"/>
<text text-anchor="middle" x="1113.5" y="-14.3" font-family="Arial" font-size="14.00">WebSocket Notifications</text>
</g>
<!-- api&#45;&gt;ws -->
<g id="edge8" class="edge">
<title>api&#45;&gt;ws</title>
<path fill="none" stroke="#64748b" d="M941.8,-53.46C967.36,-48.15 994.23,-42.57 1018.88,-37.45"/>
<polygon fill="#64748b" stroke="#64748b" points="941.12,-50.75 933.85,-55.11 942.25,-56.23 941.12,-50.75"/>
<polygon fill="#64748b" stroke="#64748b" points="1019.54,-40.17 1026.8,-35.8 1018.4,-34.69 1019.54,-40.17"/>
<text text-anchor="middle" x="978.5" y="-52.8" font-family="Arial" font-size="14.00">events</text>
</g>
<!-- exams -->
<g id="node5" class="node">
<title>exams</title>
<path fill="#f8fafc" stroke="#cbd5e1" d="M1403.5,-146C1403.5,-146 1316.5,-146 1316.5,-146 1310.5,-146 1304.5,-140 1304.5,-134 1304.5,-134 1304.5,-122 1304.5,-122 1304.5,-116 1310.5,-110 1316.5,-110 1316.5,-110 1403.5,-110 1403.5,-110 1409.5,-110 1415.5,-116 1415.5,-122 1415.5,-122 1415.5,-134 1415.5,-134 1415.5,-140 1409.5,-146 1403.5,-146"/>
<text text-anchor="middle" x="1360" y="-124.3" font-family="Arial" font-size="14.00">Exam Service</text>
</g>
<!-- auth&#45;&gt;exams -->
<g id="edge4" class="edge">
<title>auth&#45;&gt;exams</title>
<path fill="none" stroke="#64748b" d="M1203.81,-108.32C1234.48,-112.21 1268.14,-116.48 1296.24,-120.04"/>
<polygon fill="#64748b" stroke="#64748b" points="1296.11,-122.85 1304.4,-121.08 1296.81,-117.29 1296.11,-122.85"/>
</g>
<!-- subs -->
<g id="node6" class="node">
<title>subs</title>
<path fill="#f8fafc" stroke="#cbd5e1" d="M1453.5,-78C1453.5,-78 1266.5,-78 1266.5,-78 1260.5,-78 1254.5,-72 1254.5,-66 1254.5,-66 1254.5,-54 1254.5,-54 1254.5,-48 1260.5,-42 1266.5,-42 1266.5,-42 1453.5,-42 1453.5,-42 1459.5,-42 1465.5,-48 1465.5,-54 1465.5,-54 1465.5,-66 1465.5,-66 1465.5,-72 1459.5,-78 1453.5,-78"/>
<text text-anchor="middle" x="1360" y="-56.3" font-family="Arial" font-size="14.00">Submission &amp; Grading Service</text>
</g>
<!-- auth&#45;&gt;subs -->
<g id="edge5" class="edge">
<title>auth&#45;&gt;subs</title>
<path fill="none" stroke="#64748b" d="M1203.81,-83.49C1217.5,-81.41 1231.78,-79.25 1245.89,-77.12"/>
<polygon fill="#64748b" stroke="#64748b" points="1246.69,-79.83 1254.18,-75.86 1245.85,-74.29 1246.69,-79.83"/>
</g>
<!-- db -->
<g id="node8" class="node">
<title>db</title>
<path fill="#eff6ff" stroke="#3b82f6" d="M1816.5,-120C1816.5,-123.31 1749.27,-126 1666.5,-126 1583.74,-126 1516.5,-123.31 1516.5,-120 1516.5,-120 1516.5,-66 1516.5,-66 1516.5,-62.69 1583.74,-60 1666.5,-60 1749.27,-60 1816.5,-62.69 1816.5,-66 1816.5,-66 1816.5,-120 1816.5,-120"/>
<path fill="none" stroke="#3b82f6" d="M1816.5,-120C1816.5,-116.69 1749.27,-114 1666.5,-114 1583.74,-114 1516.5,-116.69 1516.5,-120"/>
<text text-anchor="middle" x="1666.5" y="-96.8" font-family="Arial" font-size="14.00">PostgreSQL</text>
<text text-anchor="middle" x="1666.5" y="-81.8" font-family="Arial" font-size="14.00">users • exams JSONB • submissions JSONB</text>
</g>
<!-- exams&#45;&gt;db -->
<g id="edge6" class="edge">
<title>exams&#45;&gt;db</title>
<path fill="none" stroke="#64748b" d="M1415.79,-121.7C1442.11,-118.68 1475.12,-114.88 1508.45,-111.05"/>
<polygon fill="#64748b" stroke="#64748b" points="1508.83,-113.83 1516.46,-110.13 1508.19,-108.26 1508.83,-113.83"/>
</g>
<!-- subs&#45;&gt;db -->
<g id="edge7" class="edge">
<title>subs&#45;&gt;db</title>
<path fill="none" stroke="#64748b" d="M1465.8,-71.36C1479.59,-72.85 1493.95,-74.41 1508.38,-75.97"/>
<polygon fill="#64748b" stroke="#64748b" points="1508.14,-78.76 1516.39,-76.84 1508.74,-73.19 1508.14,-78.76"/>
</g>
<!-- ws&#45;&gt;client -->
<g id="edge9" class="edge">
<title>ws&#45;&gt;client</title>
<path fill="none" stroke="#64748b" d="M1026.68,-18.25C947.46,-18.63 826.53,-19.59 721.5,-22 662.78,-23.35 597.78,-25.56 542.66,-27.64"/>
<polygon fill="#64748b" stroke="#64748b" points="542.49,-24.85 534.6,-27.95 542.7,-30.44 542.49,-24.85"/>
<text text-anchor="middle" x="827.5" y="-25.8" font-family="Arial" font-size="14.00">real&#45;time</text>
</g>
</g>
</svg>
